<svg width="15" height="16" viewBox="0 0 15 16" fill="none" xmlns="http://www.w3.org/2000/svg">
<path d="M11.4008 9.36071C11.2503 9.51465 11.1812 9.73728 11.2155 9.95562L11.732 12.9731C11.7756 13.2289 11.6733 13.4877 11.4705 13.6355C11.2718 13.7888 11.0074 13.8072 10.7907 13.6846L8.21731 12.2678C8.12784 12.2175 8.02848 12.1905 7.9268 12.1875H7.76934C7.71472 12.1961 7.66126 12.2145 7.61246 12.2427L5.03846 13.6662C4.91122 13.7336 4.76712 13.7576 4.62593 13.7336C4.28195 13.665 4.05244 13.319 4.1088 12.9541L4.62593 9.93661C4.66021 9.71643 4.59106 9.49257 4.44058 9.33617L2.34246 7.18957C2.16698 7.00987 2.10597 6.74001 2.18616 6.49653C2.26402 6.25366 2.46273 6.07641 2.7027 6.03655L5.59045 5.59435C5.81008 5.57043 6.00298 5.42937 6.10176 5.22084L7.37423 2.46705C7.40445 2.40572 7.44338 2.34929 7.49044 2.30146L7.54273 2.25852C7.57004 2.22663 7.60142 2.20026 7.63628 2.17879L7.69961 2.15426L7.79839 2.11133H8.043C8.26147 2.13525 8.4538 2.27324 8.55432 2.47932L9.84363 5.22084C9.9366 5.42139 10.1173 5.56061 10.3259 5.59435L13.2136 6.03655C13.4577 6.07335 13.6616 6.25121 13.7424 6.49653C13.8185 6.74246 13.7528 7.01232 13.5739 7.18957L11.4008 9.36071Z" fill="#FACD49"/>
</svg>
