<svg width="15" height="16" viewBox="0 0 15 16" fill="none" xmlns="http://www.w3.org/2000/svg">
<path d="M10.7387 9.36071C10.5882 9.51465 10.5191 9.73728 10.5534 9.95562L11.0699 12.9731C11.1135 13.2289 11.0112 13.4877 10.8084 13.6355C10.6097 13.7888 10.3453 13.8072 10.1286 13.6846L7.55521 12.2678C7.46573 12.2175 7.36637 12.1905 7.26469 12.1875H7.10723C7.05261 12.1961 6.99915 12.2145 6.95035 12.2427L4.37635 13.6662C4.24911 13.7336 4.10501 13.7576 3.96382 13.7336C3.61984 13.665 3.39033 13.319 3.4467 12.9541L3.96382 9.93661C3.9981 9.71643 3.92896 9.49257 3.77847 9.33617L1.68035 7.18957C1.50487 7.00987 1.44386 6.74001 1.52405 6.49653C1.60191 6.25366 1.80062 6.07641 2.04059 6.03655L4.92834 5.59435C5.14797 5.57043 5.34087 5.42937 5.43965 5.22084L6.71212 2.46705C6.74234 2.40572 6.78127 2.34929 6.82833 2.30146L6.88062 2.25852C6.90793 2.22663 6.93931 2.20026 6.97417 2.17879L7.0375 2.15426L7.13628 2.11133H7.38089C7.59936 2.13525 7.79169 2.27324 7.89221 2.47932L9.18153 5.22084C9.27449 5.42139 9.45519 5.56061 9.66378 5.59435L12.5515 6.03655C12.7956 6.07335 12.9995 6.25121 13.0803 6.49653C13.1564 6.74246 13.0907 7.01232 12.9118 7.18957L10.7387 9.36071Z" fill="#FACD49"/>
</svg>
