<svg width="15" height="16" viewBox="0 0 15 16" fill="none" xmlns="http://www.w3.org/2000/svg">
<path d="M10.9987 9.36071C10.8398 9.51465 10.7668 9.73728 10.803 9.95562L11.3482 12.9731C11.3942 13.2289 11.2863 13.4877 11.0723 13.6355C10.8625 13.7888 10.5834 13.8072 10.3547 13.6846L7.6383 12.2678C7.54385 12.2175 7.43897 12.1905 7.33164 12.1875H7.16543C7.10778 12.1961 7.05135 12.2145 6.99984 12.2427L4.28284 13.6662C4.14853 13.7336 3.99642 13.7576 3.84739 13.7336C3.4843 13.665 3.24204 13.319 3.30154 12.9541L3.84739 9.93661C3.88357 9.71643 3.81059 9.49257 3.65174 9.33617L1.43706 7.18957C1.25183 7.00987 1.18744 6.74001 1.27207 6.49653C1.35426 6.25366 1.56401 6.07641 1.81731 6.03655L4.86549 5.59435C5.09732 5.57043 5.30095 5.42937 5.40521 5.22084L6.74838 2.46705C6.78027 2.40572 6.82136 2.34929 6.87104 2.30146L6.92624 2.25852C6.95506 2.22663 6.98818 2.20026 7.02498 2.17879L7.09183 2.15426L7.1961 2.11133H7.4543C7.68491 2.13525 7.88792 2.27324 7.99402 2.47932L9.35497 5.22084C9.4531 5.42139 9.64384 5.56061 9.86402 5.59435L12.9122 6.03655C13.1698 6.07335 13.3851 6.25121 13.4703 6.49653C13.5507 6.74246 13.4814 7.01232 13.2925 7.18957L10.9987 9.36071Z" fill="#FACD49"/>
</svg>
