<svg width="15" height="16" viewBox="0 0 15 16" fill="none" xmlns="http://www.w3.org/2000/svg">
<path d="M11.0776 9.36071C10.9271 9.51465 10.8579 9.73728 10.8922 9.95562L11.4088 12.9731C11.4523 13.2289 11.3501 13.4877 11.1473 13.6355C10.9486 13.7888 10.6842 13.8072 10.4675 13.6846L7.89407 12.2678C7.80459 12.2175 7.70524 12.1905 7.60355 12.1875H7.44609C7.39148 12.1961 7.33802 12.2145 7.28921 12.2427L4.71522 13.6662C4.58797 13.7336 4.44388 13.7576 4.30268 13.7336C3.95871 13.665 3.7292 13.319 3.78556 12.9541L4.30268 9.93661C4.33697 9.71643 4.26782 9.49257 4.11733 9.33617L2.01921 7.18957C1.84374 7.00987 1.78273 6.74001 1.86292 6.49653C1.94077 6.25366 2.13949 6.07641 2.37946 6.03655L5.2672 5.59435C5.48684 5.57043 5.67974 5.42937 5.77852 5.22084L7.05099 2.46705C7.0812 2.40572 7.12013 2.34929 7.1672 2.30146L7.21949 2.25852C7.2468 2.22663 7.27817 2.20026 7.31304 2.17879L7.37637 2.15426L7.47515 2.11133H7.71976C7.93823 2.13525 8.13055 2.27324 8.23107 2.47932L9.52039 5.22084C9.61336 5.42139 9.79406 5.56061 10.0027 5.59435L12.8904 6.03655C13.1344 6.07335 13.3384 6.25121 13.4191 6.49653C13.4953 6.74246 13.4296 7.01232 13.2506 7.18957L11.0776 9.36071Z" fill="#FACD49"/>
</svg>
