<svg width="16" height="16" viewBox="0 0 16 16" fill="none" xmlns="http://www.w3.org/2000/svg">
<path d="M11.8629 9.36071C11.7041 9.51465 11.6311 9.73728 11.6673 9.95562L12.2125 12.9731C12.2585 13.2289 12.1506 13.4877 11.9365 13.6355C11.7268 13.7888 11.4477 13.8072 11.2189 13.6846L8.50255 12.2678C8.4081 12.2175 8.30323 12.1905 8.1959 12.1875H8.02969C7.97204 12.1961 7.91561 12.2145 7.86409 12.2427L5.1471 13.6662C5.01278 13.7336 4.86068 13.7576 4.71164 13.7336C4.34856 13.665 4.1063 13.319 4.16579 12.9541L4.71164 9.93661C4.74783 9.71643 4.67485 9.49257 4.516 9.33617L2.30131 7.18957C2.11609 7.00987 2.05169 6.74001 2.13633 6.49653C2.21852 6.25366 2.42827 6.07641 2.68157 6.03655L5.72975 5.59435C5.96158 5.57043 6.1652 5.42937 6.26947 5.22084L7.61263 2.46705C7.64453 2.40572 7.68562 2.34929 7.7353 2.30146L7.7905 2.25852C7.81932 2.22663 7.85244 2.20026 7.88924 2.17879L7.95609 2.15426L8.06035 2.11133H8.31856C8.54917 2.13525 8.75217 2.27324 8.85828 2.47932L10.2192 5.22084C10.3174 5.42139 10.5081 5.56061 10.7283 5.59435L13.7765 6.03655C14.0341 6.07335 14.2493 6.25121 14.3346 6.49653C14.4149 6.74246 14.3456 7.01232 14.1567 7.18957L11.8629 9.36071Z" fill="#FACD49"/>
</svg>
